#!OML:ASF F:\VICON\USERDATA\INSTALL\rory3\rory3.ASF
:FULLY-SPECIFIED
:DEGREES
634
root 2.58141 16.4953 6.09026 -15.1117 -8.1718 8.80213
lowerback 14.0049 -13.3567 -13.5525
upperback 1.38934 -19.7057 3.31606
thorax -0.397635 -10.0159 12.5968
lowerneck -10.8241 5.23317 -7.88347
upperneck 32.8002 7.12909 5.78564
head 12.0047 2.78669 4.43677
rclavicle -1.46703e-013 7.95139e-014
rhumerus -69.6224 -25.0395 -30.7472
rradius 27.493
rwrist -12.4907
rhand -22.4534 18.303
rfingers 7.12502
rthumb 3.9709 -11.6398
lclavicle -1.46703e-013 7.95139e-014
lhumerus 3.71088 -42.2561 105.543
lradius 44.7985
lwrist -20.1689
lhand -17.7547 16.7431
lfingers 7.12502
lthumb 8.50708 -313.448
rfemur -56.3102 7.47108 38.0141
rtibia 48.438
rfoot 16.7755 14.4102
rtoes 7.27904
lfemur -1.30566 14.1807 -38.2487
ltibia 46.0419
lfoot -22.5615 2.14225
ltoes 12.3592
635
root 2.55992 16.527 6.12086 -13.9085 -7.48026 7.27428
lowerback 13.9122 -13.55 -12.4934
upperback 0.958922 -19.789 4.13226
thorax -0.835074 -10.0189 13.0069
lowerneck -10.9058 5.04037 -8.0738
upperneck 32.4781 6.92891 5.76167
head 11.9034 2.69048 4.42554
rclavicle 4.59193e-014 -1.59028e-015
rhumerus -70.1731 -25.161 -29.7861
rradius 27.5578
rwrist -13.4792
rhand -21.1508 18.7851
rfingers 7.12502
rthumb 5.2287 -11.1304
lclavicle 4.59193e-014 -1.59028e-015
lhumerus 5.23586 -45.0863 105.938
lradius 44.939
lwrist -20.3378
lhand -17.6819 16.5522
lfingers 7.12502
lthumb 8.57732 -313.642
rfemur -56.2142 7.91592 39.5316
rtibia 48.0212
rfoot 16.4271 12.8934
rtoes 6.39866
lfemur -2.05798 13.9097 -36.4938
ltibia 46.1098
lfoot -22.2703 1.06425
ltoes 12.2415
636
root 2.55969 16.5726 6.21282 -13.6456 -6.87213 6.49895
lowerback 13.4543 -13.59 -11.6363
upperback 1.12093 -19.6521 4.33315
thorax -0.661871 -9.97845 12.6652
lowerneck -11.0365 4.7911 -8.27811
upperneck 31.9393 6.58305 5.99088
head 11.7237 2.57112 4.48633
rclavicle -2.47487e-013 4.92986e-014
rhumerus -70.8972 -25.7635 -28.632
rradius 27.7038
rwrist -14.8701
rhand -19.5539 18.5121
rfingers 7.12502
rthumb 6.77043 -11.3596
lclavicle -2.47487e-013 4.92986e-014
lhumerus 7.10906 -47.7416 106.088
lradius 44.7742
lwrist -20.4863
lhand -17.4818 16.4081
lfingers 7.12502
lthumb 8.77038 -313.794
rfemur -54.9488 7.63805 40.553
rtibia 47.3072
rfoot 16.2977 11.9361
rtoes 5.61874
lfemur -1.6218 14.0856 -35.4069
ltibia 46.2077
lfoot -22.5386 0.0275143
ltoes 12.6739
637
root 2.55811 16.5949 6.24514 -12.4092 -5.47439 6.36564
lowerback 12.6683 -13.8325 -11.6144
upperback 0.920488 -19.8939 4.57089
thorax -0.313009 -10.1251 12.677
lowerneck -11.2024 4.59029 -8.69756
upperneck 31.2836 6.24888 6.60755
head 11.4783 2.4863 4.72324
rclavicle -1.4551e-013 2.54444e-014
rhumerus -71.515 -26.7839 -27.7184
rradius 27.7319
rwrist -15.1673
rhand -18.646 17.9653
rfingers 7.12502
rthumb 7.64684 -11.8764
lclavicle -1.4551e-013 2.54444e-014
lhumerus 9.354 -50.2345 105.759
lradius 44.489
lwrist -20.2566
lhand -17.9495 17.1277
lfingers 7.12502
lthumb 8.31905 -313.056
rfemur -55.318 7.37746 40.3417
rtibia 46.717
rfoot 16.4007 10.0943
rtoes 6.14946
lfemur -2.70067 13.3602 -35.5112
ltibia 46.2547
lfoot -22.1297 -0.969702
ltoes 13.8138
638
root 2.54574 16.648 6.3164 -12.0119 -4.66993 5.55907
lowerback 12.1799 -13.9256 -10.8891
upperback 1.06161 -19.8642 4.78513
thorax -0.068654 -10.1404 12.3961
lowerneck -11.2362 4.41987 -8.89189
upperneck 30.7272 5.97691 6.94266
head 11.2691 2.41233 4.82326
rclavicle -9.8796e-014 6.36111e-015
rhumerus -71.9052 -27.1879 -27.6867
rradius 27.84
rwrist -15.7801
rhand -19.6452 18.0623
rfingers 7.12502
rthumb 6.68236 -11.8123
lclavicle -9.8796e-014 6.36111e-015
lhumerus 11.403 -52.5994 105.413
lradius 44.3844
lwrist -19.5131
lhand -17.9417 17.686
lfingers 7.12502
lthumb 8.32661 -312.498
rfemur -54.2699 7.37658 40.9705
rtibia 46.2167
rfoot 16.2402 7.35171
rtoes 9.81944
lfemur -2.48501 13.3872 -34.3589
ltibia 46.0233
lfoot -21.9185 -2.01608
ltoes 14.7178
639
root 2.54215 16.6947 6.41001 -12.0217 -3.30909 6.17775
lowerback 12.0039 -13.9866 -11.6057
upperback 0.968845 -20.0304 4.65475
thorax 0.159906 -10.2371 12.5316
lowerneck -11.1058 4.25031 -9.02269
upperneck 30.2933 5.75643 6.98895
head 11.0906 2.32436 4.8112
rclavicle 1.63799e-013 -4.77083e-015
rhumerus -71.8337 -26.6769 -28.4539
rradius 27.9706
rwrist -17.5082
rhand -19.2239 17.689
rfingers 7.12502
rthumb 7.089 -12.1723
lclavicle 1.63799e-013 -4.77083e-015
lhumerus 13.0557 -54.5785 105.31
lradius 44.519
lwrist -18.5872
lhand -17.0086 17.8549
lfingers 7.12502
lthumb 9.22701 -312.367
rfemur -53.2885 6.73136 39.9535
rtibia 46.1438
rfoot 15.0367 7.80464
rtoes 3.60408
lfemur -1.56656 13.3718 -34.8372
ltibia 45.4144
lfoot -21.7826 -2.97119
ltoes 14.8596
640
root 2.53592 16.7303 6.45737 -11.0828 -2.27106 5.46803
lowerback 11.4081 -14.1536 -10.9621
upperback 0.674959 -20.1139 5.10623
thorax 0.136747 -10.2718 12.5681
lowerneck -10.76 4.03544 -9.54813
upperneck 29.6616 5.47934 7.2512
head 10.7792 2.19933 4.92048
rclavicle 8.15017e-015 -1.27222e-014
rhumerus -71.8479 -26.6386 -28.4817
rradius 27.8435
rwrist -18.2489
rhand -18.7088 17.3029
rfingers 7.12502
rthumb 7.58627 -12.5411
lclavicle 8.15017e-015 -1.27222e-014
lhumerus 14.5468 -56.1577 105.453
lradius 44.6097
lwrist -17.8937
lhand -16.0791 17.9974
lfingers 7.12502
lthumb 10.1239 -312.266
rfemur -53.1181 6.78264 40.0997
rtibia 45.7488
rfoot 15.0489 6.14983
rtoes 4.832
lfemur -2.01921 13.1002 -34.0499
ltibia 45.0747
lfoot -21.3347 -4.04009
ltoes 15.0937
641
root 2.55481 16.7605 6.54313 -11.143 -0.840642 6.20124
lowerback 11.0369 -14.1958 -11.6088
upperback 0.826645 -20.2159 4.82269
thorax 0.636276 -10.3628 12.4116
lowerneck -10.4612 3.77165 -10.0199
upperneck 28.9129 5.10007 7.6154
head 10.4476 2.04958 5.04507
rclavicle 1.30999e-013 -1.11319e-014
rhumerus -72.0413 -27.1363 -28.4193
rradius 27.6684
rwrist -18.1428
rhand -19.1474 17.2196
rfingers 7.12502
rthumb 7.1629 -12.6392
lclavicle 1.30999e-013 -1.11319e-014
lhumerus 16.7539 -58.3136 104.607
lradius 44.8155
lwrist -16.5841
lhand -15.0767 18.0276
lfingers 7.12502
lthumb 11.0908 -312.285
rfemur -52.1523 5.98662 38.7254
rtibia 45.6379
rfoot 15.2038 5.39458
rtoes 4.94452
lfemur -1.05602 12.8538 -34.8179
ltibia 44.4679
lfoot -20.9342 -4.87126
ltoes 16.3236
